<?xml version="1.0" encoding="iso-8859-1"?>
<!-- Generator: Adobe Illustrator 16.0.4, SVG Export Plug-In . SVG Version: 6.00 Build 0)  -->
<!DOCTYPE svg PUBLIC "-//W3C//DTD SVG 1.1//EN" "http://www.w3.org/Graphics/SVG/1.1/DTD/svg11.dtd">
<svg version="1.1" xmlns="http://www.w3.org/2000/svg" xmlns:xlink="http://www.w3.org/1999/xlink" x="0px" y="0px"
	 width="1312.391px" height="1046.796px" viewBox="0 0 1312.391 1046.796" style="enable-background:new 0 0 1312.391 1046.796;"
	 xml:space="preserve">
<g id="Layer_2" style="display:none;">
	
		<rect x="24" y="24" style="display:inline;fill-rule:evenodd;clip-rule:evenodd;fill:#005A3F;stroke:#FFFFFF;stroke-width:20;stroke-linejoin:bevel;stroke-miterlimit:10;" width="1264.391" height="998.848"/>
</g>
<g id="Layer_1">
	<path style="fill:#FFFFFF;" d="M1312.048,347.681c-0.183-7.333-0.53-14.781-1.032-22.123c-0.246-6.895-0.723-13.87-1.418-20.739
		c-0.411-3.994-0.936-7.981-1.563-11.896c-0.727-4.592-1.686-9.204-2.85-13.715c-0.589-2.507-1.29-5.021-2.086-7.479
		c-3.876-11.997-10.078-21.664-18.43-28.718l-0.097-0.082c-2.879-2.405-6.018-4.513-9.33-6.267
		c-6.061-3.203-12.897-5.433-20.334-6.633c-3.154-0.51-6.373-0.858-9.569-1.036c-3.715-0.294-7.483-0.442-11.207-0.442h-0.276
		c-4.006,0.005-8.073,0.135-12.073,0.384c-3.785,0.234-7.626,0.553-11.401,0.948c-3.865,0.403-7.787,0.878-11.659,1.411
		c-5.34,0.563-10.727,1.227-16.017,1.971c-18.935,2.655-38.519,6.192-51.611,8.69c-18.16,3.466-35.354,7.033-52.565,10.906
		c-7.003,1.573-14.103,3.245-21.094,4.968c-14.976,3.496-30.059,7.417-44.837,11.657c-16.182,4.641-32.458,9.768-48.373,15.237
		c-18.189,6.25-36.435,13.11-54.226,20.39l-1.575-0.59c-9.832-19.533-20.434-38.986-31.51-57.821
		c-8.514-14.482-17.521-28.941-26.77-42.975c-10.339-15.696-21.299-31.283-32.571-46.322c-6.413-8.762-13.054-17.571-19.738-26.186
		c-7.018-9.067-14.255-18.218-21.494-27.176c-12.658-15.675-23.75-28.852-34.901-41.462c-4.851-5.497-9.904-10.98-15.01-16.285
		c-4.621-5.123-9.469-10.159-14.416-14.973c-2.882-2.794-5.846-5.512-8.842-8.107c-3.485-3.03-7.194-5.956-10.996-8.672
		c-2.07-1.548-4.227-3.024-6.411-4.393C675.083,3.453,664.117,0.034,653.185,0h-0.12c-3.75,0.007-7.512,0.409-11.18,1.196
		c-6.705,1.442-13.375,4.13-19.843,7.991c-2.74,1.635-5.428,3.436-7.992,5.354c-3.107,2.214-6.161,4.583-9.082,7.043
		c-3.06,2.575-6.094,5.289-9.005,8.059c-2.739,2.602-5.477,5.315-8.122,8.051c-2.698,2.79-5.396,5.674-8.023,8.575
		c-3.722,3.856-7.422,7.827-11.004,11.807c-12.796,14.203-25.526,29.502-33.951,39.833c-11.688,14.334-22.566,28.119-33.258,42.143
		c-4.37,5.728-8.734,11.574-12.97,17.37c-9.225,12.306-18.258,25.004-26.849,37.745c-9.411,13.952-18.584,28.342-27.263,42.766
		c-11.619,19.309-22.733,39.268-33.032,59.322l-1.946,0.723c-13.733-5.57-27.778-10.909-41.746-15.867
		c-15.844-5.625-32.038-10.912-48.132-15.713c-18-5.375-36.414-10.271-54.727-14.548c-10.572-2.596-21.321-5.076-31.951-7.372
		c-11.22-2.438-22.647-4.796-33.935-7.001c-19.76-3.87-36.727-6.834-53.386-9.329c-7.251-1.093-14.646-2.044-21.965-2.826
		c-6.84-0.955-13.792-1.696-20.672-2.204c-3.989-0.288-8.009-0.465-11.984-0.527c-0.815-0.015-1.68-0.022-2.544-0.022
		c-3.808,0-7.662,0.15-11.459,0.447c-2.582,0.146-5.181,0.4-7.73,0.756c-12.486,1.733-23.084,6.163-31.479,13.164l-0.096,0.08
		c-2.867,2.416-5.488,5.14-7.79,8.097c-4.211,5.417-7.593,11.764-10.066,18.879c-1.049,3.017-1.95,6.123-2.68,9.234
		c-0.957,3.695-1.774,7.474-2.431,11.236c-0.689,3.938-1.268,7.967-1.718,11.961c-0.427,3.76-0.779,7.599-1.046,11.391
		c-0.274,3.879-0.488,7.823-0.634,11.722c-0.372,5.341-0.654,10.763-0.84,16.119C0.201,345.121,0.021,355.735,0,367.192v0.088
		c0.057,30.275,1.223,66.33,2.973,91.923c3.55,65.075,14.639,134,32.071,199.333l0.204,0.719
		c24.838,82.668,54.267,139.507,104.964,202.726l0.686,0.817c53.457,60.905,104.322,99.758,181.419,138.572l0.672,0.325
		c68.75,31.971,134.051,36.273,177.263,39.121l4.623-0.143c15.595-1.994,35.94-6.219,57.479-10.692
		c18.619-3.866,37.871-7.864,55.41-10.722l12.059-17.287c0.155,0.128,0.315,0.251,0.47,0.38l0.049,0.04
		c1.571,1.3,3.095,2.69,4.534,4.139c1.112,1.192,2.309,2.318,3.566,3.356l0.062,0.051l0.102,0.083l15.35,5.383
		c0.265-0.002,0.528-0.003,0.79-0.003c2.259,0,4.278,0.083,6.005,0.249c0.744,0.091,1.487,0.161,2.217,0.209l13.041-2.873
		c0.556-0.303,1.111-0.622,1.651-0.95l0.164-0.101c1.683-1.039,3.303-2.187,4.863-3.409l8.435,16.154
		c18.435,2.874,39.014,7.147,58.916,11.28c21.539,4.473,41.884,8.698,57.479,10.692l4.622,0.143
		c43.21-2.847,108.509-7.148,177.264-39.12l0.672-0.326c77.098-38.814,127.963-77.667,181.42-138.571l0.686-0.817
		c50.697-63.221,80.126-120.06,104.964-202.726l0.203-0.72c17.433-65.335,28.521-134.254,32.071-199.326
		c1.779-26.044,2.947-62.6,2.975-93.194v-0.093C1312.365,363.542,1312.254,355.62,1312.048,347.681z"/>
</g>
<g id="Layer_1_Original">
	<g>
		<g>
			<path style="fill-rule:evenodd;clip-rule:evenodd;fill:#005A3F;" d="M634.848,534.835h-23.602l-7.946-7.946
				c-9.344,6.594-20.64,8.062-31.807,7.946h-59.49c-9.702,0.083-20.456-1.763-28.568-6.979l-6.979,6.979H360.259h-0.075h-0.607
				c-0.302,5.931-0.525,11.866-0.669,17.803c0.406,16.329,1.324,31.794,2.813,46.723c8.794-5.129,18.905-6.422,29.071-6.315h55.906
				c10.798-0.115,22.313,1.824,31.168,8.242l8.242-8.242l96.88,0.001c6.913,0.036,14.226,1.553,20.661,4.538
				c2.475-5.942,5.049-11.842,7.729-17.691C618.549,564.237,626.339,549.321,634.848,534.835z"/>
		</g>
		<g>
			<path style="fill-rule:evenodd;clip-rule:evenodd;fill:#005A3F;" d="M388.29,387.967h14.388l13.817,13.817v67.344h48.917v-34.459
				c-0.106-13.327,2.922-26.824,13.325-36.135c9.602-8.595,21.726-10.714,34.787-10.567l3.678,0.004
				c-1.525-1.08-3.057-2.15-4.595-3.212c-15.836-10.932-32.329-20.984-49.176-30.278c-9.188-5.068-18.473-9.958-27.85-14.668
				c-7.713-3.586-15.472-7.072-23.274-10.457c-1.855,3.836-3.686,7.685-5.491,11.545c-3.09,7.174-6.081,14.39-8.972,21.646
				C394.482,370.981,391.289,379.446,388.29,387.967z"/>
		</g>
		<g>
			<polygon style="fill-rule:evenodd;clip-rule:evenodd;fill:#005A3F;" points="550.025,453.522 535.325,453.522 535.325,468.599 
				550.025,468.599 550.025,459.646 550.328,459.402 550.025,459.142 			"/>
		</g>
		<g>
			<path style="fill-rule:evenodd;clip-rule:evenodd;fill:#005A3F;" d="M598.05,929.26l-28.829-24.298v26.212l-1.241,1.241
				c14.167,7.629,28.716,15.543,41.956,23.352c-0.921-2.368-1.881-4.722-2.881-7.059c-2.406-5.627-4.957-11.191-7.647-16.688
				C598.957,931.099,598.504,930.179,598.05,929.26z"/>
		</g>
		<g>
			<path style="fill-rule:evenodd;clip-rule:evenodd;fill:#005A3F;" d="M943.498,496.732v24.286l-13.817,13.817h-29.482
				l-7.838-2.862l-44.098-37.166v26.211l-13.817,13.817H794.09l-0.923-0.923l-0.922,0.923h-42.28l-0.922-0.923l-0.923,0.923h-42.28
				l-13.816-13.817v-28.163h-0.407c-1.13,1.484-2.253,2.972-3.371,4.465c-5.585,7.459-10.937,14.957-16.085,22.579
				c14.535,23.615,26.653,47.65,37.187,73.146h15.261c14.276-0.09,28.184,3.225,37.693,14.969
				c9.707-11.962,24.169-15.127,39.229-14.969h55.906c6.268-0.135,12.521,0.62,18.577,2.241
				c14.653,3.935,25.622,16.12,27.999,31.105c1.385,7.911,1.425,15.999,0.119,23.924l-2.885,3.462
				c1.178,2.438,2.192,5.36,2.893,7.939l34.773-62.188l5.907-3.465c1.302-13.902,2.117-28.286,2.494-43.41
				c-0.177-7.138-0.463-14.273-0.859-21.403C945.808,519.611,944.844,508.16,943.498,496.732z"/>
		</g>
		<g>
			<path style="fill-rule:evenodd;clip-rule:evenodd;fill:#005A3F;" d="M803.842,387.967h19.682l7.758,2.798l44.44,36.85v-25.831
				l13.817-13.817h28.393c-2.116-6.012-4.326-11.989-6.62-17.927c-3.78-9.788-7.75-19.502-11.905-29.138
				c-0.683-1.459-1.369-2.917-2.059-4.374c-6.881,3.009-13.728,6.098-20.539,9.265c-6.979,3.509-13.907,7.114-20.786,10.814
				C838.067,366.264,820.656,376.59,803.842,387.967z"/>
		</g>
		<g>
			<path style="fill-rule:evenodd;clip-rule:evenodd;fill:#005A3F;" d="M909.517,739.913h-22.398l-2.829-4.824
				c-7.924,3.941-17.63,4.914-26.204,4.824h-63.813c-6.32-0.001-12.6-1.001-18.606-2.965c-5.897-1.861-11.229-5.186-15.495-9.663
				c-3.828,3.965-8.147,6.78-12.832,8.73c0.311,3.288,0.579,6.58,0.806,9.876c0.438,6.4,0.766,12.809,0.983,19.221
				c0.193,5.613,0.359,11.228,0.497,16.843c0.121,4.926,0.278,10.584,0.465,16.243l3.834,0.005
				c25.014,0.301,42.05,16.21,42.751,41.419l0.352,23.579c2.412-0.647,5.756-1.608,8.014-1.757l26.449-0.162
				c1.301,0.064,4.521,0.52,6.283,0.831c22.072-27.752,38.99-49.248,61.635-97.676C903.004,756.075,906.37,747.917,909.517,739.913z
				"/>
		</g>
		<g>
			<path style="fill-rule:evenodd;clip-rule:evenodd;fill:#005A3F;" d="M720.317,944.99c-7.027,0-15.224,0-15.929,0
				c-0.336,0.81-0.667,1.619-0.996,2.432c-0.995,2.465-1.945,4.947-2.85,7.447C707.089,951.291,713.714,948.033,720.317,944.99z"/>
		</g>
		<g>
			<path style="fill-rule:evenodd;clip-rule:evenodd;fill:#005A3F;" d="M556.344,388.021l20.83,0.026
				c8.857,0.106,19.254,2.911,26.186,7.807l7.887-7.887h42.494l13.817,13.817v24.078h24.466v-24.078l13.816-13.817h42.28
				l0.923,0.922l0.922-0.922h13.698c18.181-14.111,37.205-26.864,57.608-38.866c7.773-4.572,15.635-8.996,23.578-13.267
				c7.123-3.832,14.299-7.564,21.526-11.196l0.323-0.157c6.729-3.13,13.492-6.186,20.287-9.166
				c-9.636-19.143-19.894-37.968-30.76-56.446c-8.348-14.199-17.058-28.181-26.121-41.934
				c-10.144-15.399-20.753-30.485-31.814-45.238c-6.351-8.679-12.824-17.267-19.417-25.763c-6.973-9.009-14.04-17.944-21.2-26.805
				c-11.251-13.933-22.408-27.299-34.213-40.648c-4.748-5.38-9.614-10.656-14.595-15.822c-4.373-4.861-8.906-9.575-13.592-14.135
				c-2.538-2.461-5.145-4.851-7.816-7.166c-3.027-2.632-6.182-5.115-9.45-7.439c-1.611-1.213-3.272-2.355-4.981-3.426
				c-6.007-3.768-12.722-6.471-19.916-6.493c-2.082,0.004-4.158,0.226-6.193,0.663c-4.446,0.957-8.678,2.807-12.572,5.131
				c-2.117,1.263-4.164,2.64-6.131,4.125c-2.677,1.897-5.273,3.906-7.782,6.02c-2.713,2.283-5.356,4.647-7.925,7.091
				c-2.522,2.396-4.992,4.844-7.41,7.345c-2.627,2.717-5.208,5.479-7.742,8.283c-3.635,3.76-7.203,7.585-10.702,11.472
				c-10.875,12.07-22.668,26.042-33.189,38.944c-11.292,13.848-22.004,27.402-32.772,41.526
				c-4.313,5.654-8.568,11.353-12.763,17.096c-9.055,12.074-17.805,24.373-26.243,36.886c-9.224,13.676-18.093,27.588-26.597,41.722
				c-11.397,18.94-22.152,38.255-32.247,57.912c7.656,3.333,15.271,6.76,22.844,10.283l0.319,0.154
				c9.703,4.871,19.31,9.93,28.816,15.173c17.543,9.677,34.69,20.137,51.182,31.519C536.54,372.619,546.613,380.156,556.344,388.021
				z"/>
		</g>
		<g>
			<path style="fill-rule:evenodd;clip-rule:evenodd;fill:#005A3F;" d="M724.01,739.918c-0.288,0-0.576-0.002-0.865-0.005H649.5
				c-26.819,0.151-45.281-12.694-46.568-43.003c-2.326,1.019-4.789,1.825-7.321,2.446c-1.901,8.769-3.528,17.518-4.846,26.422
				c-1.026,6.95-1.845,13.93-2.454,20.929c-0.496,5.748-0.878,11.505-1.146,17.268c-0.291,6.356-0.516,12.716-0.675,19.076
				c-0.178,7.045-0.374,14.09-0.587,21.134c-0.237,7.618-0.561,15.233-0.969,22.844c-0.021,0.318-0.04,0.638-0.056,0.956
				l11.802,9.786v-25.831l13.817-13.816h40.142l8.029,8.028c9.236-6.602,20.519-8.153,31.604-8.028l36.216,0.046
				c-0.168-5.21-0.315-10.42-0.443-15.63c-0.137-5.541-0.3-11.081-0.49-16.62c-0.21-6.144-0.524-12.283-0.942-18.416
				C724.438,744.973,724.237,742.444,724.01,739.918z"/>
		</g>
		<g>
			<path style="fill-rule:evenodd;clip-rule:evenodd;fill:#005A3F;" d="M630.163,595.615c6.444-2.075,13.5-2.686,20.943-2.57h32.615
				c-3.452-7.94-7.106-15.807-10.991-23.601c-4.626-9.271-9.549-18.388-14.763-27.336c-4.74,7.862-9.25,15.859-13.527,23.982
				c-4.087,7.769-7.962,15.646-11.62,23.626C631.923,591.677,631.037,593.644,630.163,595.615z"/>
		</g>
		<g>
			<rect x="672.797" y="658.6" style="fill-rule:evenodd;clip-rule:evenodd;fill:#005A3F;" width="28.528" height="15.077"/>
		</g>
		<g>
			<path style="fill-rule:evenodd;clip-rule:evenodd;fill:#005A3F;" d="M717.678,863.678h-5.604v12.039
				c0.226-0.46,0.451-0.92,0.676-1.38c1.235-2.543,2.437-5.103,3.603-7.678C716.802,865.668,717.244,864.674,717.678,863.678z"/>
		</g>
		<g>
			<path style="fill-rule:evenodd;clip-rule:evenodd;fill:#005A3F;" d="M335.96,534.835h-25.61l-11.246-6.79l-10.398-19.76H245.04
				l-10,19.604l-11.341,6.945h-46.735l-13.742-22.904l74.228-139.177l11.205-6.723h38.905l11.16,6.651l46.1,85.22
				c0.496-2.605,1.012-5.203,1.548-7.792v-48.326l13.817-13.817h3.155c0.993-2.939,2.012-5.882,3.058-8.831
				c3.016-8.5,6.195-16.941,9.534-25.319c2.993-7.514,6.091-14.986,9.293-22.414l0.147-0.328c1.697-3.629,3.415-7.249,5.155-10.857
				c-13.467-5.462-27.055-10.627-40.753-15.49c-15.521-5.511-31.181-10.624-46.964-15.332c-17.668-5.276-35.493-10.013-53.45-14.205
				c-10.444-2.565-20.923-4.984-31.435-7.254c-11.132-2.419-22.29-4.721-33.471-6.906c-17.575-3.441-34.713-6.509-52.336-9.147
				c-7.096-1.069-14.215-1.982-21.352-2.739c-6.474-0.913-12.977-1.61-19.497-2.091c-3.526-0.255-7.059-0.41-10.594-0.465
				c-4.011-0.071-8.022,0.055-12.021,0.376c-2.013,0.106-4.021,0.299-6.018,0.578c-7.023,0.975-13.905,3.22-19.431,7.828
				c-1.592,1.341-3.04,2.846-4.318,4.488c-2.791,3.591-4.844,7.729-6.333,12.013c-0.81,2.328-1.493,4.698-2.045,7.101
				c-0.831,3.174-1.528,6.382-2.092,9.614c-0.611,3.492-1.116,7.002-1.513,10.526c-0.392,3.456-0.71,6.92-0.955,10.389
				c-0.267,3.77-0.469,7.544-0.606,11.322c-0.368,5.217-0.642,10.44-0.824,15.667c-0.344,9.775-0.5,20.292-0.52,30.748
				c0.06,31.922,1.317,67.013,2.928,90.5c3.216,59.169,12.942,125.796,31.304,194.613c23.65,78.716,50.984,132.619,100.702,194.617
				c52.423,59.729,100.761,96.008,174.174,132.968c64.584,30.033,126.588,34.158,168.721,36.935
				c27.638-3.535,73.598-15.027,112.074-21.296c-0.392-2.026-0.675-4.074-0.867-6.112c-6.67-4.316-13.664-8.495-19.957-12.125
				c-7.013-4.038-14.072-7.994-21.177-11.868c-6.503-3.547-13.019-7.073-19.546-10.577c-6.124-3.275-12.236-6.575-18.334-9.899
				h-18.975l-1.065-1.064l-1.065,1.064h-46.272l-13.817-13.816v-52.66c-8.189-9.121-16.04-18.522-23.523-28.268
				c-9.031-11.748-17.408-23.984-25.093-36.655c-6.906-11.395-13.195-23.152-18.839-35.223l-0.146-0.326
				c-4.302-9.969-8.41-20.021-12.322-30.148c-1.247-3.227-2.469-6.465-3.666-9.712c-1.451-0.356-2.89-0.768-4.313-1.233
				c-2.673-0.844-5.24-1.991-7.652-3.42l-6.385,6.385h-42.28l-13.817-13.817v-8.093c-20.464,18.877-44.028,22.305-71.011,21.91
				h-76.203l-13.817-13.817V584.927l13.817-13.817h83.322c26.497-0.24,53.498,7.572,71.081,28.563l6.628-6.628h28.505
				c-0.348-4.486-0.647-9.002-0.899-13.552c-0.454-8.167-0.769-16.342-0.943-24.52v-0.502
				C335.409,547.923,335.638,541.377,335.96,534.835z"/>
		</g>
		<g>
			<path style="fill-rule:evenodd;clip-rule:evenodd;fill:#005A3F;" d="M207.668,669.895c10.989,0,9.777,0.131,21.117-0.428
				c4.364-0.26,8.657-1.224,12.713-2.854c1.393-0.686,2.438-1.92,2.885-3.406c1.404-5.285,2.015-18.766-2.969-21.366
				c-3.029-1.36-6.326-2.02-9.645-1.927l-24.101,0.001V669.895z"/>
		</g>
		<g>
			<polygon style="fill-rule:evenodd;clip-rule:evenodd;fill:#005A3F;" points="550.025,453.522 535.325,453.522 535.325,468.599 
				550.025,468.599 550.025,459.646 550.328,459.402 550.025,459.142 			"/>
		</g>
		<g>
			<path style="fill-rule:evenodd;clip-rule:evenodd;fill:#005A3F;" d="M571.167,701.034H541.99v25.062l-13.817,13.817h-42.066
				l-7.7-7.7c-9.131,6.35-20.188,7.814-31.061,7.7h-52.238c3.721,9.613,7.623,19.155,11.706,28.62
				c5.267,11.249,11.131,22.207,17.569,32.829c7.24,11.93,15.129,23.454,23.632,34.52c1.578,2.056,3.184,4.107,4.813,6.151v-52.029
				l13.817-13.816h46.272l13.817,13.816v8.119h17.746l7.758,2.798l9.885,8.196c0.369-10.313,0.644-21.077,0.785-26.66
				c0.164-6.523,0.395-13.045,0.692-19.563c0.955-20.829,3.152-39.655,7.221-60.145
				C570.937,702.177,571.051,701.605,571.167,701.034z"/>
		</g>
		<g>
			<path style="fill-rule:evenodd;clip-rule:evenodd;fill:#005A3F;" d="M724.01,739.918c-0.288,0-0.576-0.002-0.865-0.005H649.5
				c-26.819,0.151-45.281-12.694-46.568-43.003c-2.326,1.019-4.789,1.825-7.321,2.446c-1.901,8.769-3.528,17.518-4.846,26.422
				c-1.026,6.95-1.845,13.93-2.454,20.929c-0.496,5.748-0.878,11.505-1.146,17.268c-0.291,6.356-0.516,12.716-0.675,19.076
				c-0.178,7.045-0.374,14.09-0.587,21.134c-0.237,7.618-0.561,15.233-0.969,22.844c-0.021,0.318-0.04,0.638-0.056,0.956
				l11.802,9.786v-25.831l13.817-13.816h40.142l8.029,8.028c9.236-6.602,20.519-8.153,31.604-8.028l36.216,0.046
				c-0.168-5.21-0.315-10.42-0.443-15.63c-0.137-5.541-0.3-11.081-0.49-16.62c-0.21-6.144-0.524-12.283-0.942-18.416
				C724.438,744.973,724.237,742.444,724.01,739.918z"/>
		</g>
		<g>
			<path style="fill-rule:evenodd;clip-rule:evenodd;fill:#005A3F;" d="M630.163,595.615c6.444-2.075,13.5-2.686,20.943-2.57h32.615
				c-3.452-7.94-7.106-15.807-10.991-23.601c-4.626-9.271-9.549-18.388-14.763-27.336c-4.74,7.862-9.25,15.859-13.527,23.982
				c-4.087,7.769-7.962,15.646-11.62,23.626C631.923,591.677,631.037,593.644,630.163,595.615z"/>
		</g>
		<g>
			<rect x="672.797" y="658.6" style="fill-rule:evenodd;clip-rule:evenodd;fill:#005A3F;" width="28.528" height="15.077"/>
		</g>
		<g>
			<path style="fill-rule:evenodd;clip-rule:evenodd;fill:#005A3F;" d="M677.83,944.231c-6.913-1.063-13.672-3.317-19.175-7.257
				l-8.016,8.016h-19.598c1.917,4.795,3.686,9.646,5.304,14.551c0.059,1.752,0.077,3.506,0.055,5.259
				c-0.023,1.908-0.059,3.815-0.108,5.724c-0.056,2.041-0.093,4.083-0.113,6.125c1.091,0.78,2.175,1.569,3.252,2.368
				c2.113,1.57,4.183,3.199,6.208,4.883c2.308,1.909,4.516,3.937,6.615,6.073c0.453,0.505,0.943,0.975,1.466,1.406
				c0.011,0.009,0.021,0.018,0.032,0.026c3.513-0.029,6.767,0.095,9.712,0.396c0.364,0.05,0.718,0.086,1.062,0.108
				c0.229-0.125,0.457-0.256,0.681-0.392c1.612-0.996,3.124-2.146,4.515-3.432c1.841-1.695,3.588-3.489,5.233-5.375
				c0.895-3.579,1.196-7.913,1.256-12.469c-0.011-1.228-0.033-2.454-0.066-3.682c-0.05-2.037-0.094-4.074-0.133-6.112
				c-0.036-1.655-0.04-3.311-0.013-4.966c-0.027-2.104-0.025-4.129,0.046-6.018C676.619,947.708,677.215,945.964,677.83,944.231z"/>
		</g>
		<g>
			<path style="fill-rule:evenodd;clip-rule:evenodd;fill:#005A3F;" d="M929.602,352.098c3.285-5.851,8.687-10.333,15.214-12.433
				c1.897-0.541,6.181-1.453,7.527-1.535l28.237-0.05c9.351,0.675,18.861,6.395,22.804,15.192c2.808,6.263,3.175,8.81,3.393,15.909
				l0.021,28.667l-0.07,0.246c9.785-8.165,21.369-10.264,34.495-10.126h55.905c6.268-0.134,12.522,0.621,18.577,2.242
				c14.654,3.934,25.623,16.12,27.999,31.105c1.385,7.911,1.426,15.999,0.119,23.924l-2.885,3.462
				c2.993,6.197,4.664,14.06,4.721,21.032c0.152,19.008,2.76,40.344-13.248,54.595c-9.611,8.557-21.485,10.646-34.633,10.509
				h-63.814c-6.319,0-12.6-1.001-18.606-2.965c-25.122-8.071-29.097-33.729-26.363-56.32l6.886-8.174
				c-1.965-5.379-3.015-11.05-3.107-16.776l-0.145-16.426c-0.008-3.983,0.347-7.958,1.059-11.876l-15.511,24.85l-10.675,5.92h-7.044
				c5.044,25.172,8.081,50.44,9.549,76.874c0.454,8.167,0.769,16.341,0.942,24.519v0.503c-0.229,10.967-0.718,21.927-1.465,32.87
				c-0.118,1.737-0.245,3.475-0.38,5.211h15.875l11.004,6.406l38.738,68.233v-60.822l13.817-13.817h42.494l13.817,13.817v67.344
				h59.962l13.817,13.817v38.072l-13.817,13.817h-116.038h-0.235h-45.666l-11.206-6.727l-8.106-15.209h-33.987l-8.106,15.209
				l-3.414,2.049c-2.482,6.834-5.069,13.629-7.762,20.384c-2.993,7.512-6.09,14.981-9.291,22.408l-0.142,0.315
				c-3.232,6.936-6.595,13.809-10.085,20.616c-9.718,18.954-20.28,36.543-32.951,53.93c-3.778,5.185-7.646,10.304-11.601,15.355
				c-2.913,3.724-5.841,7.437-8.784,11.136c0.872,2.274,1.458,4.684,1.718,7.183c0.198,2.177,0.605,26.114,0.327,30.871
				c-0.077,1.306-0.935,5.604-1.414,7.459c-3.069,10.581-12.142,18.319-23.073,19.682c-1.066,0.124-27.922,0.486-30.327,0.318
				l-3.82-0.542c-2.325-0.45-4.562-1.2-6.659-2.217c-2.682,1.421-5.397,2.782-8.147,4.102c-2.741,1.315-5.5,2.594-8.276,3.835
				c-5.057,2.255-10.143,4.445-15.256,6.569c-6.076,2.527-12.146,5.073-18.207,7.637c-5.237,2.223-10.438,4.53-15.602,6.923
				c-4.965,2.302-9.866,4.737-14.699,7.305c-3.207,1.706-6.37,3.491-9.487,5.355c-0.125,0.106-4.426,5.467-5.24,6.488
				c-0.429,0.539-0.859,1.076-1.293,1.612c-0.352,1.453-0.766,2.893-1.241,4.312c-0.541,1.608-1.182,3.178-1.922,4.695
				c39.186,6.11,87.221,18.232,115.743,21.881c42.132-2.775,104.137-6.901,168.721-36.935
				c73.413-36.96,121.751-73.239,174.174-132.967c49.718-61.999,77.052-115.901,100.702-194.617
				c18.361-68.818,28.088-135.445,31.305-194.614c1.631-23.792,2.9-59.491,2.93-91.741c-0.023-7.863-0.129-15.727-0.335-23.671
				c-0.179-7.174-0.516-14.344-1.011-21.503c-0.225-6.534-0.667-13.059-1.325-19.564c-0.362-3.517-0.823-7.023-1.383-10.514
				c-0.626-3.962-1.446-7.891-2.457-11.773c-0.454-1.964-0.993-3.908-1.614-5.826c-2.18-6.748-5.586-13.134-11.082-17.776
				c-1.598-1.335-3.331-2.5-5.171-3.474c-4.021-2.125-8.452-3.428-12.929-4.15c-2.434-0.393-4.887-0.654-7.349-0.781
				c-3.271-0.267-6.55-0.397-9.831-0.391c-3.546,0.005-7.091,0.117-10.629,0.338c-3.472,0.214-6.938,0.502-10.397,0.864
				c-3.759,0.392-7.511,0.849-11.255,1.369c-5.201,0.544-10.393,1.181-15.572,1.91c-16.089,2.256-34.104,5.378-50.457,8.5
				c-17.551,3.35-34.47,6.847-51.797,10.746c-6.939,1.559-13.861,3.189-20.767,4.893c-14.697,3.428-29.307,7.225-43.813,11.387
				c-15.856,4.547-31.593,9.504-47.192,14.865c-17.835,6.128-35.488,12.766-52.937,19.905c0.59,1.247,1.177,2.496,1.761,3.746
				l0.146,0.323C923.955,338.258,926.825,345.16,929.602,352.098z"/>
		</g>
		<g>
			<rect x="672.797" y="658.6" style="fill-rule:evenodd;clip-rule:evenodd;fill:#005A3F;" width="28.528" height="15.077"/>
		</g>
		<g>
			<path style="fill-rule:evenodd;clip-rule:evenodd;fill:#005A3F;" d="M241.785,462.762l25.662-49.544l24.451,49.544H241.785z
				 M190.318,511.248h26.731l13.544-26.55h72.353l13.972,26.55h29.939l-65.795-121.629h-25.876L190.318,511.248z"/>
		</g>
		<g>
			<polygon style="fill-rule:evenodd;clip-rule:evenodd;fill:#005A3F;" points="369.954,511.248 466.687,511.248 466.687,492.716 
				392.907,492.716 392.907,411.554 369.954,411.554 			"/>
		</g>
		<g>
			<path style="fill-rule:evenodd;clip-rule:evenodd;fill:#005A3F;" d="M573.612,429.935v18.381l22.954-3.479
				c0.095-4.841,0.024-9.682-0.214-14.523c-0.143-3.126-0.76-6.152-1.853-9.077c-1.616-3.833-4.277-6.43-7.984-7.791
				c-3.184-1.109-6.463-1.714-9.837-1.815c-1.616-0.05-3.255-0.076-4.918-0.076h-58.524c-4.04-0.101-8.031,0.277-11.976,1.135
				c-2.519,0.555-4.776,1.689-6.772,3.404c-2.043,1.967-3.445,4.362-4.206,7.186c-0.903,3.631-1.331,7.362-1.283,11.195v0.681v52.57
				c-0.048,3.782,0.333,7.514,1.14,11.194c0.618,2.723,1.83,5.093,3.636,7.11c1.854,1.765,3.968,3,6.344,3.707
				c3.849,1.059,7.746,1.563,11.69,1.513h1.426h58.524c4.134,0.101,8.221-0.277,12.261-1.135c2.519-0.555,4.8-1.689,6.843-3.404
				c2.091-1.966,3.541-4.362,4.348-7.186c0.903-3.429,1.331-6.934,1.283-10.514l0.071-13.085l-22.954-4.992v21.255h-61.875v-62.252
				H573.612z"/>
		</g>
		<g>
			<polygon style="fill-rule:evenodd;clip-rule:evenodd;fill:#005A3F;" points="621.017,511.248 643.97,511.248 643.97,469.268 
				715.61,469.268 715.61,511.248 738.35,511.248 738.35,411.554 715.61,411.554 715.61,449.45 643.97,449.45 643.97,411.554 
				621.017,411.554 			"/>
		</g>
		<g>
			<rect x="759.735" y="411.554" style="fill-rule:evenodd;clip-rule:evenodd;fill:#005A3F;" width="22.739" height="99.693"/>
		</g>
		<g>
			<polygon style="fill-rule:evenodd;clip-rule:evenodd;fill:#005A3F;" points="803.86,511.248 824.675,511.248 824.675,444.08 
				904.371,511.248 919.91,511.248 919.91,411.554 899.31,411.554 899.31,477.814 819.4,411.554 803.86,411.554 			"/>
		</g>
		<g>
			<path style="fill-rule:evenodd;clip-rule:evenodd;fill:#005A3F;" d="M974.086,361.557h-15.682c-1.521-0.051-3.042,0-4.562,0.151
				c-0.665,0.051-1.307,0.202-1.925,0.454c-0.95,0.353-1.616,1.034-1.996,2.042c-0.285,0.807-0.451,1.639-0.499,2.496
				c-0.143,1.16-0.189,2.345-0.143,3.555v14.599c-0.047,1.563,0.071,3.126,0.356,4.689c0.143,0.908,0.452,1.715,0.927,2.421
				c0.57,0.756,1.283,1.235,2.139,1.437c0.57,0.151,1.141,0.202,1.711,0.151h12.902l-18.891,35.929h12.974l21.813-34.946v-24.28
				c0.047-1.563-0.048-3.126-0.285-4.689c-0.19-0.807-0.499-1.563-0.927-2.27c-0.57-0.807-1.307-1.311-2.21-1.513
				c-0.522-0.151-1.069-0.227-1.64-0.227H974.086z"/>
		</g>
		<g>
			<path style="fill-rule:evenodd;clip-rule:evenodd;fill:#005A3F;" d="M1101.471,429.481v10.589l19.675-4.462
				c0.143-3.53-0.095-7.009-0.713-10.438c-0.57-3.076-1.877-5.774-3.921-8.093c-1.948-2.017-4.253-3.379-6.914-4.085
				c-3.992-1.059-8.056-1.538-12.189-1.437h-0.642h-55.815c-4.04-0.101-8.031,0.277-11.977,1.135
				c-2.661,0.605-5.084,1.815-7.271,3.63c-2.044,2.018-3.445,4.488-4.206,7.413c-0.855,3.378-1.283,6.833-1.283,10.362
				c-0.095,5.396-0.047,10.792,0.143,16.187c0.096,3.378,0.761,6.656,1.996,9.833c1.568,3.63,4.111,6.152,7.628,7.564
				c3.278,1.21,6.677,1.866,10.193,1.966c1.568,0.101,3.16,0.151,4.776,0.151h60.662v22.919h-68.932V480.84l-20.743,4.084
				c-0.096,4.034,0.166,8.043,0.784,12.027c0.475,2.874,1.544,5.471,3.207,7.791c1.807,2.269,4.04,3.832,6.701,4.689
				c3.707,1.21,7.484,1.815,11.334,1.815h2.78h61.304c4.04,0.101,8.032-0.277,11.977-1.135c2.471-0.555,4.704-1.689,6.7-3.404
				c1.948-1.815,3.303-4.034,4.063-6.656c0.902-3.429,1.354-6.934,1.354-10.514c0.143-6.556,0.118-13.086-0.071-19.591
				c-0.096-3.379-0.713-6.631-1.854-9.758c-1.426-3.63-3.85-6.177-7.271-7.64c-3.041-1.16-6.178-1.815-9.409-1.966
				c-1.854-0.101-3.683-0.151-5.489-0.151h-61.304v-20.952H1101.471z"/>
		</g>
		<g>
			<path style="fill-rule:evenodd;clip-rule:evenodd;fill:#005A3F;" d="M184.081,693.482V616.33h47.262
				c7.223-0.151,14.138,1.336,20.744,4.462c8.079,4.337,13.235,11.195,15.468,20.574c2.091,9.278,1.972,18.558-0.356,27.836
				c-2.709,8.976-8.15,15.329-16.324,19.061c-6.748,2.773-13.734,4.362-20.958,4.766c-3.897,0.303-7.794,0.454-11.69,0.454H184.081z
				 M157.349,716.325h66.793c11.215,0.354,22.288-0.781,33.218-3.403c22.003-7.211,34.834-22.894,38.493-47.048
				c1.901-13.111,0.523-25.844-4.134-38.198c-6.226-13.867-16.205-23.222-29.939-28.062c-9.932-3.479-20.149-5.118-30.652-4.917
				h-73.779V716.325z"/>
		</g>
		<g>
			<rect x="318.38" y="616.632" style="fill-rule:evenodd;clip-rule:evenodd;fill:#005A3F;" width="22.74" height="99.693"/>
		</g>
		<g>
			<path style="fill-rule:evenodd;clip-rule:evenodd;fill:#005A3F;" d="M451.04,634.559v10.59l19.674-4.463
				c0.143-3.529-0.095-7.009-0.713-10.438c-0.57-3.076-1.877-5.773-3.92-8.093c-1.948-2.018-4.253-3.379-6.915-4.085
				c-3.992-1.059-8.055-1.538-12.189-1.438h-0.642H390.52c-4.04-0.101-8.031,0.277-11.976,1.135
				c-2.662,0.605-5.085,1.815-7.271,3.631c-2.043,2.018-3.446,4.488-4.206,7.413c-0.855,3.378-1.283,6.832-1.283,10.362
				c-0.095,5.396-0.047,10.791,0.143,16.187c0.095,3.379,0.761,6.656,1.996,9.834c1.568,3.63,4.111,6.151,7.627,7.563
				c3.279,1.21,6.677,1.866,10.193,1.967c1.568,0.101,3.161,0.151,4.776,0.151h60.663v22.919H382.25v-11.876l-20.744,4.085
				c-0.095,4.034,0.167,8.043,0.784,12.026c0.475,2.875,1.544,5.472,3.208,7.791c1.806,2.27,4.04,3.832,6.701,4.689
				c3.707,1.211,7.485,1.815,11.334,1.815h2.78h61.305c4.039,0.101,8.031-0.277,11.976-1.135c2.471-0.555,4.705-1.688,6.701-3.403
				c1.948-1.815,3.303-4.034,4.063-6.656c0.903-3.429,1.354-6.934,1.354-10.514c0.143-6.556,0.119-13.086-0.071-19.591
				c-0.095-3.379-0.713-6.632-1.854-9.758c-1.425-3.631-3.849-6.177-7.271-7.64c-3.041-1.16-6.178-1.815-9.409-1.967
				c-1.854-0.101-3.683-0.151-5.489-0.151h-61.305v-20.952H451.04z"/>
		</g>
		<g>
			<path style="fill-rule:evenodd;clip-rule:evenodd;fill:#005A3F;" d="M570.726,633.803c1.806,0,3.588,0.176,5.346,0.529
				c1.093,0.252,2.091,0.756,2.994,1.513c0.903,0.857,1.497,1.916,1.782,3.177c0.19,1.009,0.285,2.018,0.285,3.025
				c0,3.58-0.023,7.136-0.071,10.665c0,1.211-0.214,2.37-0.642,3.479c-0.57,1.463-1.521,2.472-2.851,3.026
				c-1.283,0.555-2.59,0.856-3.92,0.907c-0.998,0.101-1.973,0.151-2.923,0.151h-52.323v-26.474H570.726z M495.877,716.325h22.525
				v-38.879h62.088c3.897,0.102,7.723-0.429,11.477-1.588c2.946-0.908,5.346-2.647,7.2-5.22c1.616-2.521,2.59-5.319,2.922-8.396
				c0.238-3.228,0.333-6.479,0.285-9.758c0.048-5.95,0-11.9-0.143-17.851c0-2.875-0.499-5.648-1.497-8.32
				c-1.474-3.682-3.968-6.229-7.485-7.64c-3.375-1.312-6.867-1.992-10.479-2.043h-2.281h-84.614V716.325z"/>
		</g>
		<g>
			<path style="fill-rule:evenodd;clip-rule:evenodd;fill:#005A3F;" d="M649.209,697.265v-62.252h75.704v62.252H649.209z
				 M626.47,640.231v52.57c-0.095,3.832,0.285,7.64,1.141,11.421c0.618,2.724,1.877,5.068,3.778,7.035
				c1.806,1.765,3.921,2.975,6.344,3.631c3.802,1.008,7.675,1.487,11.62,1.437h1.354h72.71c4.039,0.101,8.031-0.277,11.976-1.135
				c2.661-0.604,5.037-1.815,7.129-3.63c1.995-1.866,3.374-4.136,4.134-6.808c0.903-3.479,1.354-7.01,1.354-10.59v-1.361v-52.57
				c0.096-3.933-0.309-7.79-1.212-11.572c-0.713-2.724-2.02-5.068-3.92-7.035c-1.854-1.765-4.016-2.975-6.487-3.63
				c-3.802-0.959-7.675-1.412-11.619-1.362h-1.354h-72.71c-3.992-0.151-7.96,0.202-11.904,1.06
				c-2.471,0.504-4.705,1.613-6.701,3.328c-1.996,1.765-3.374,3.983-4.134,6.656c-0.951,3.379-1.426,6.857-1.426,10.438
				L626.47,640.231z"/>
		</g>
		<g>
			<path style="fill-rule:evenodd;clip-rule:evenodd;fill:#005A3F;" d="M861.778,634.559v10.59l19.675-4.463
				c0.143-3.529-0.096-7.009-0.713-10.438c-0.57-3.076-1.877-5.773-3.921-8.093c-1.948-2.018-4.253-3.379-6.915-4.085
				c-3.991-1.059-8.055-1.538-12.189-1.438h-0.642h-55.815c-4.039-0.101-8.031,0.277-11.976,1.135
				c-2.661,0.605-5.085,1.815-7.271,3.631c-2.044,2.018-3.445,4.488-4.206,7.413c-0.855,3.378-1.283,6.832-1.283,10.362
				c-0.095,5.396-0.048,10.791,0.143,16.187c0.095,3.379,0.761,6.656,1.996,9.834c1.568,3.63,4.11,6.151,7.627,7.563
				c3.279,1.21,6.678,1.866,10.194,1.967c1.568,0.101,3.16,0.151,4.775,0.151h60.663v22.919h-68.932v-11.876l-20.744,4.085
				c-0.095,4.034,0.167,8.043,0.784,12.026c0.476,2.875,1.545,5.472,3.208,7.791c1.806,2.27,4.04,3.832,6.701,4.689
				c3.706,1.211,7.484,1.815,11.334,1.815h2.78h61.304c4.04,0.101,8.031-0.277,11.976-1.135c2.472-0.555,4.705-1.688,6.701-3.403
				c1.948-1.815,3.303-4.034,4.063-6.656c0.902-3.429,1.354-6.934,1.354-10.514c0.143-6.556,0.118-13.086-0.071-19.591
				c-0.096-3.379-0.713-6.632-1.854-9.758c-1.426-3.631-3.85-6.177-7.271-7.64c-3.041-1.16-6.178-1.815-9.409-1.967
				c-1.854-0.101-3.684-0.151-5.489-0.151h-61.304v-20.952H861.778z"/>
		</g>
		<g>
			<path style="fill-rule:evenodd;clip-rule:evenodd;fill:#005A3F;" d="M945.181,676.236l20.958-41.45l22.24,41.45H945.181z
				 M900.628,716.325h23.097l11.69-21.936h62.302l11.69,21.936h25.806l-56.6-99.693h-22.241L900.628,716.325z"/>
		</g>
		<g>
			<polygon style="fill-rule:evenodd;clip-rule:evenodd;fill:#005A3F;" points="1058.309,716.325 1155.041,716.325 
				1155.041,697.794 1081.262,697.794 1081.262,616.632 1058.309,616.632 			"/>
		</g>
		<g>
			<rect x="476.417" y="799.774" style="fill-rule:evenodd;clip-rule:evenodd;fill:#005A3F;" width="26.732" height="121.629"/>
		</g>
		<g>
			<polygon style="fill-rule:evenodd;clip-rule:evenodd;fill:#005A3F;" points="524.818,921.403 545.634,921.403 545.634,854.235 
				625.329,921.403 640.869,921.403 640.869,821.71 620.268,821.71 620.268,887.971 540.358,821.71 524.818,821.71 			"/>
		</g>
		<g>
			<path style="fill-rule:evenodd;clip-rule:evenodd;fill:#005A3F;" d="M750.361,840.091v18.38l22.953-3.479
				c0.096-4.841,0.024-9.682-0.214-14.522c-0.143-3.126-0.76-6.152-1.853-9.077c-1.616-3.832-4.277-6.429-7.984-7.79
				c-3.184-1.109-6.463-1.715-9.837-1.815c-1.616-0.051-3.256-0.076-4.919-0.076h-58.524c-4.039-0.101-8.031,0.277-11.976,1.135
				c-2.519,0.555-4.775,1.689-6.771,3.403c-2.044,1.967-3.445,4.362-4.206,7.187c-0.903,3.631-1.331,7.362-1.283,11.194v0.681
				v52.569c-0.048,3.782,0.333,7.514,1.141,11.195c0.618,2.723,1.83,5.093,3.636,7.11c1.854,1.765,3.968,3,6.344,3.706
				c3.85,1.059,7.746,1.563,11.691,1.513h1.425h58.524c4.135,0.101,8.222-0.277,12.261-1.135c2.519-0.555,4.8-1.689,6.844-3.403
				c2.091-1.967,3.54-4.362,4.349-7.187c0.902-3.429,1.33-6.934,1.282-10.514l0.071-13.086l-22.953-4.992v21.255h-61.875v-62.251
				H750.361z"/>
		</g>
		<g>
			<path style="fill-rule:evenodd;clip-rule:evenodd;fill:#005A3F;" d="M826.707,884.869h-15.54c-1.521,0-3.042,0.051-4.562,0.151
				c-0.713,0.051-1.426,0.227-2.139,0.529c-0.95,0.403-1.615,1.135-1.996,2.193c-0.332,0.908-0.499,1.841-0.499,2.799
				c-0.095,1.06-0.143,2.093-0.143,3.102v19.137c-0.047,1.563,0.071,3.102,0.356,4.614c0.143,0.857,0.476,1.664,0.998,2.42
				c0.523,0.706,1.212,1.16,2.067,1.362c0.57,0.151,1.141,0.227,1.711,0.227h19.746c1.521,0.051,3.041,0,4.562-0.151
				c0.713-0.051,1.426-0.201,2.139-0.454c0.95-0.453,1.592-1.185,1.925-2.193c0.285-0.807,0.476-1.664,0.57-2.571
				c0.095-1.06,0.143-2.144,0.143-3.253v-19.137c0-1.563-0.119-3.127-0.356-4.689c-0.143-0.807-0.428-1.538-0.855-2.193
				c-0.57-0.857-1.307-1.412-2.21-1.664c-0.617-0.151-1.235-0.228-1.854-0.228H826.707z"/>
		</g>
	</g>
</g>
</svg>
